<svg xmlns="http://www.w3.org/2000/svg" width="44.145" height="51.689" viewBox="0 0 44.145 51.689"><g transform="translate(-22.257)" style="isolation:isolate"><path d="M65.032,41.5c-1.516-.621-2.164-1.445-2.1-2.674a4.1,4.1,0,0,0-1.136-2.9,12.574,12.574,0,0,0,0-6.659c-.984-2.869-3.987-7.251-7.085-11.559-1.269-1.769-1.329-3.692-1.4-5.918a17.993,17.993,0,0,0-1.326-7.207A7.453,7.453,0,0,0,44.9,0a9.7,9.7,0,0,0-5.391,1.641c-3.1,2.137-2.687,6.8-2.416,9.879.037.422.072.821.092,1.161.18,3.019.016,4.611-.2,5.094a20.914,20.914,0,0,1-1.545,2.168c-.748.985-1.6,2.1-2.291,3.142A24.61,24.61,0,0,0,31,28.1a24.05,24.05,0,0,1-1.357,3.4,4.626,4.626,0,0,0-.449,3.475,3.571,3.571,0,0,0-1.145,1.45c-.461.983-1.4,1.511-3.339,1.885a2.574,2.574,0,0,0-1.831,1.116,3.165,3.165,0,0,0,.019,2.529,3.935,3.935,0,0,1-.26,2.852c-.09.272-.192.58-.295.919a1.657,1.657,0,0,0,.174,1.448c.734,1.122,2.876,1.518,5.081,1.778a19.583,19.583,0,0,1,4.151,1.192,19.485,19.485,0,0,0,4.061,1.172,4.616,4.616,0,0,0,.575.037,3.379,3.379,0,0,0,3.091-1.814,34.353,34.353,0,0,1,5.571-.658,24.2,24.2,0,0,1,5.537.569,4.455,4.455,0,0,0,1.668,1.817,4.048,4.048,0,0,0,1.877.423h0a4.526,4.526,0,0,0,3.3-1.362c1.124-1.191,3.932-2.712,5.983-3.822.458-.248.886-.48,1.261-.689a2.822,2.822,0,0,0,1.724-2.5A2.116,2.116,0,0,0,65.032,41.5Zm-25.5-.229c-.143-1.01-1.443-2.012-2.947-3.172-1.23-.949-2.625-2.024-3.009-2.934-.794-1.878-.168-5.18.923-6.881A17.473,17.473,0,0,0,35.9,24.895a12.189,12.189,0,0,1,1.468-3.353,8.555,8.555,0,0,0,1.759-4.268,5.326,5.326,0,0,0,3.143,1.709,1.853,1.853,0,0,0,.5-.068A16.981,16.981,0,0,0,45.79,17.4a12.863,12.863,0,0,1,2.558-1.285c.755,1.084,5.14,10.788,5.588,13.9a14.736,14.736,0,0,1-.208,5.3,3.9,3.9,0,0,0-.522-.037c-1.221,0-1.545.667-1.629,1.065a43.11,43.11,0,0,0-.242,5.085,10.1,10.1,0,0,1-5.882,3.679,25.465,25.465,0,0,1-3.625.286,12.246,12.246,0,0,1-1.788-.11l-1.611-1.844A1.958,1.958,0,0,0,39.532,41.273Zm2.045-30.4q-.075.033-.148.07a3,3,0,0,0-.034-.331,1.879,1.879,0,0,0-1.6-1.748,1.128,1.128,0,0,0-.172.014,1.336,1.336,0,0,0-.987.883c.168-1.041.758-1.812,1.458-1.812.822,0,1.516,1.108,1.516,2.419A3.578,3.578,0,0,1,41.576,10.872Zm6.387.781a2.566,2.566,0,0,0,.116-.768,1.929,1.929,0,0,0-1.717-2.12,1.949,1.949,0,0,0-1.706,2.12q0,.119.011.239l-.146-.056a3.241,3.241,0,0,1-.163-1.019A2.355,2.355,0,0,1,46.383,7.47a2.355,2.355,0,0,1,2.025,2.578A3.035,3.035,0,0,1,47.963,11.652Zm-.823,2.766c-.016.072-.05.1-.429.3-.191.1-.429.223-.727.4l-.2.12a18.427,18.427,0,0,1-3.18,1.687c-.345.046-.559-.087-1.039-.414-.108-.074-.224-.152-.346-.231a4.072,4.072,0,0,1-1.485-1.438c.282-.218.982-.764,1.34-1.087a3.87,3.87,0,0,1,1.82-1.13.286.286,0,0,1,.054,0,18.113,18.113,0,0,1,2.241.8c.354.141.66.263.875.341A2.1,2.1,0,0,1,47.14,14.419ZM53.232,46a25.1,25.1,0,0,0,.752-5.456c-.016-.314-.044-.657-.071-.987a9.079,9.079,0,0,1-.048-1.811.33.33,0,0,1,.051-.018c0,.791.175,2.369,1.437,2.919a3.178,3.178,0,0,0,1.277.247A5.215,5.215,0,0,0,59.871,39.7a5.9,5.9,0,0,0,.822-1.08,1.3,1.3,0,0,1,.056.509,3.647,3.647,0,0,0,1.571,3.285l.157.083c.384.2,1.405.738,1.422.992a.226.226,0,0,1-.066.083,14.737,14.737,0,0,1-2.026,1.138,17.709,17.709,0,0,0-4.08,2.509,5.575,5.575,0,0,1-3.114,1.947.818.818,0,0,1-.248-.035C53.544,48.877,52.869,47.693,53.232,46ZM25.25,41.6a2.3,2.3,0,0,1-.079-1c.052-.222,1.148-.46,1.616-.561a6.3,6.3,0,0,0,1.784-.561,3.618,3.618,0,0,0,1.215-1.63,2.532,2.532,0,0,1,.679-1.018.144.144,0,0,1,.078-.018c.479,0,1.484,1.007,2.064,1.909.147.227.419.683.734,1.21a38.675,38.675,0,0,0,2.9,4.457c.607.65,1.589,1.9,1.348,2.973a3.256,3.256,0,0,1-1.341,1.658,1.374,1.374,0,0,1-.3.028c-1.289,0-3.841-1.072-5.211-1.649l-.2-.085a16.52,16.52,0,0,0-3.224-.719,10.529,10.529,0,0,1-2.5-.561c-.177-.2.028-.844.209-1.413a9.165,9.165,0,0,0,.339-1.275A4.641,4.641,0,0,0,25.25,41.6Z" transform="translate(0 0)" fill="#242231"/></g></svg>