<svg id="you-tube-2017-icon-seeklogo.com-4" xmlns="http://www.w3.org/2000/svg" width="35.089" height="24.722" viewBox="0 0 35.089 24.722">
  <path id="Tracé_27" data-name="Tracé 27" d="M42.351,37.868a4.441,4.441,0,0,0-3.11-3.13C36.51,34,25.545,34,25.545,34s-10.965,0-13.717.738a4.407,4.407,0,0,0-3.11,3.13A47.143,47.143,0,0,0,8,46.361a45.9,45.9,0,0,0,.738,8.493,4.441,4.441,0,0,0,3.11,3.13c2.731.738,13.7.738,13.7.738s10.965,0,13.717-.738a4.407,4.407,0,0,0,3.11-3.13,47.143,47.143,0,0,0,.718-8.493A45.9,45.9,0,0,0,42.351,37.868Z" transform="translate(-8 -34)" fill="#4d9ed8"/>
  <path id="Tracé_28" data-name="Tracé 28" d="M78,80.247V69.8l9.171,5.223Z" transform="translate(-64.044 -62.663)" fill="#fff"/>
</svg>
