<svg id="discord" xmlns="http://www.w3.org/2000/svg" width="32.087" height="24.444" viewBox="0 0 32.087 24.444">
  <path id="Tracé_22" data-name="Tracé 22" d="M96,115.312a26.722,26.722,0,0,0-6.534-2.03c-.043,0-.086,0-.1.051a17.614,17.614,0,0,0-.814,1.67,24.516,24.516,0,0,0-7.339,0,11.825,11.825,0,0,0-.856-1.67.1.1,0,0,0-.1-.051,32.126,32.126,0,0,0-6.509,2.03.057.057,0,0,0-.043.034,26.614,26.614,0,0,0-4.71,18.241.136.136,0,0,0,.043.086,26,26,0,0,0,8.016,4.051c.043,0,.086,0,.111-.034a19.271,19.271,0,0,0,1.644-2.672.1.1,0,0,0-.06-.137,19.263,19.263,0,0,1-2.509-1.2.1.1,0,0,1,0-.171c.171-.128.343-.257.5-.385a.109.109,0,0,1,.1-.017,18.916,18.916,0,0,0,16.1,0,.108.108,0,0,1,.1.009c.163.137.325.265.5.394a.109.109,0,0,1,0,.171,16.9,16.9,0,0,1-2.509,1.2.1.1,0,0,0-.051.146,21.138,21.138,0,0,0,1.627,2.655.094.094,0,0,0,.111.034,26.753,26.753,0,0,0,8.033-4.051.1.1,0,0,0,.043-.086,26.816,26.816,0,0,0-4.744-18.241c0-.017-.026-.034-.043-.034ZM79.559,129.957a3.274,3.274,0,1,1,2.912-3.254A3.084,3.084,0,0,1,79.559,129.957Zm10.705,0a3.274,3.274,0,1,1,2.912-3.254A3.084,3.084,0,0,1,90.264,129.957Z" transform="translate(-68.84 -113.281)" fill="#4d9ed8"/>
</svg>
