<svg xmlns="http://www.w3.org/2000/svg" width="165.827" height="166.362" viewBox="0 0 165.827 166.362">
  <g id="Logo" transform="translate(-75.543 -35.413)">
    <path id="Tracé_11" data-name="Tracé 11" d="M188.373,35.413" transform="translate(-53.165)"/>
    <path id="Tracé_12" data-name="Tracé 12" d="M116.45,67.477l14.638-10.034c1.862,5.728,2.512,11.177,1.512,16.249a25.946,25.946,0,0,1-16.151-6.215" transform="translate(-19.275 -10.38)" fill="#d4d6d9"/>
    <path id="Tracé_13" data-name="Tracé 13" d="M85.49,102.9" transform="translate(-4.687 -31.798)"/>
    <path id="Tracé_14" data-name="Tracé 14" d="M134.043,36.424l-22.23,11.115c1.832,5.612,2.564,11.559,1.512,16.249-6.862-.629-12.408-2.544-16.151-6.216L82.224,70.762C79.239,77.107,77.57,84.388,76.645,92.2l-.515,9.617-.587,25.621c.583,14.057,2.078,26.732,5.065,37.146l16.665,15.71c4.27-3.683,9.669-5.769,16-6.533a28.436,28.436,0,0,1-1.834,16.517l22.6,11.974h48.534l22.978-11.974c-2.275-4.435-2.366-10.37-1.488-16.979,7.2.948,13.114,3.382,16.023,7l16.433-16.444c2.367-8.832,4.508-22.926,4.508-22.926l.339-33.455a184.388,184.388,0,0,0-4.744-35.332L220.091,57.989a48.072,48.072,0,0,1-16.444,6.46,51,51,0,0,1,1.835-16.665,75.985,75.985,0,0,0-22.538-11.36Z" transform="translate(0 -0.476)" fill="#232731"/>
    <path id="Tracé_15" data-name="Tracé 15" d="M333.653,68.112c-5.116,3.177-11.28,6.218-16.444,6.46-1.071-5.742-1.079-10.965,1.835-16.665" transform="translate(-113.562 -10.599)" fill="#d4d6d9"/>
    <path id="Tracé_16" data-name="Tracé 16" d="M319.595,312.24c-2.278-5.383-2.429-11.228-1.488-16.979,5.8.658,11.978,2.619,16.023,7" transform="translate(-114.039 -122.44)" fill="#d4d6d9"/>
    <path id="Tracé_17" data-name="Tracé 17" d="M116.637,302.667c5.076-3.963,10.992-6.607,16-6.534a28.435,28.435,0,0,1-1.835,16.517" transform="translate(-19.363 -122.85)" fill="#d4d6d9"/>
    <path id="Tracé_18" data-name="Tracé 18" d="M116.637,302.667c5.119-4.059,10.992-6.607,16-6.534a28.435,28.435,0,0,1-1.835,16.517" transform="translate(-19.363 -122.849)" fill="#d4d6d9"/>
    <g id="Groupe_3" data-name="Groupe 3" transform="translate(114.788 83.039)">
      <path id="Tracé_19" data-name="Tracé 19" d="M198.438,125.477l18.311,45.809,11.2-25.988Z" transform="translate(-172.695 -125.477)" fill="#3774ab"/>
      <path id="Tracé_20" data-name="Tracé 20" d="M164.782,135.333V191.86l-.269.857-1.15.367-.416.1-13.189-.881,50.562,33.748,9.636-.125c.791.625,42.235-20.584,43.459-29.169,1.152-8.077,4-34.409,4-34.409a147.436,147.436,0,0,0-1.16-24.076L237.46,127.7v64.749c-1.626,1.441-12.886.737-14.242,0,0,0-.232-.32-.012-2.3-.44-1.835-.282-54.225-.282-54.225l-21.8,56.6s.074,1.248-2.863,1.174-10.351,0-10.351,0a4.558,4.558,0,0,1-2.716-2.936C184.6,188.556,164.782,135.333,164.782,135.333Z" transform="translate(-149.757 -126.523)" fill="#3774ab"/>
    </g>
    <path id="Tracé_21" data-name="Tracé 21" d="M345.779,227.628c3.349-4.228,4.326-34.239,4-34.409" transform="translate(-127.334 -74.358)" fill="#3774ab"/>
    <path id="Around" d="M160.587,70.887S123.1,89.876,118.595,99.86s-3.23,53.738-3.23,53.738,2.516,15.684,3.328,17.521c.745,1.683,19.508,16.857,32.815,23.81a94.05,94.05,0,0,0,9.079,4.184c11.454.292,33.085,0,33.085,0s37.978-17.325,43.459-29.169,5.188-62.058,0-70.182-39.152-28.68-42.774-28.875S160.587,70.887,160.587,70.887Z" transform="translate(-18.686 -16.674)" fill="#4b9ad7"/>
    <path id="Letter" d="M165.087,131.245v57.408c-4.5,1.612-9.442,1.423-14.682,0V123.9c.995-2.107,2.187-3.723,3.817-4.258h16.261c3.66,1.132,6.039,3.142,6.937,6.166l16.7,43.166,18.1-43.9c1.544-2.754,3.321-4.976,5.873-5.432h15.563c1.817.4,3.19,1.814,4.112,4.258v64.749c-4.39,1.627-9.185,1.411-14.242,0l-.294-56.968L201.5,188.653c-.051.712-.811,1.1-2.349,1.138H188.029c-1.252-.27-2.165-1.369-2.68-3.438Z" transform="translate(-35.275 -39.69)" fill="#fff" stroke="#232731" stroke-miterlimit="10" stroke-width="0.05"/>
  </g>
</svg>
